<svg width="79" height="79" viewBox="0 0 79 79" fill="none" xmlns="http://www.w3.org/2000/svg">
<g clip-path="url(#clip0_1_1346)">
<path d="M61.1474 29.1366L51.0709 26.1846L54.0229 16.1081L38.9082 11.68L35.9562 21.7565L25.8797 18.8045L14.8096 56.5913L19.8479 58.0674C19.442 59.4529 20.2435 60.9186 21.629 61.3245C23.0145 61.7304 24.4802 60.9289 24.8861 59.5434L40.0008 63.9714C39.5949 65.3569 40.3964 66.8226 41.782 67.2285C43.1675 67.6344 44.6332 66.8329 45.0391 65.4474L50.0773 66.9234L61.1474 29.1366ZM28.3597 52.355L24.581 51.248L31.223 28.5759L35.0017 29.6829L28.3597 52.355ZM36.5468 54.7535L32.7681 53.6465L39.4102 30.9744L43.1889 32.0814L36.5468 54.7535ZM47.2922 25.0775L39.7349 22.8635L41.5799 16.5657L49.1372 18.7797L47.2922 25.0775ZM44.734 57.152L40.9553 56.045L47.5973 33.3729L51.376 34.4799L44.734 57.152Z" fill="#00BDFF" fill-opacity="0.3"/>
</g>
<defs>
<clipPath id="clip0_1_1346">
<rect width="63" height="63" fill="white" transform="translate(17.7121) rotate(16.3285)"/>
</clipPath>
</defs>
</svg>
