<svg width="54" height="51" viewBox="0 0 54 51" fill="none" xmlns="http://www.w3.org/2000/svg">
<path d="M9.23403 37.0994C6.74617 32.7903 5.50355 30.638 6.06943 28.5262C6.63531 26.4143 8.78758 25.1717 13.0967 22.6838L14.888 21.6496C15.1256 21.5124 15.2444 21.4438 15.2988 21.3271C15.3497 21.2094 15.3216 21.0763 15.2664 20.8066L14.4716 16.9183C14.1036 15.1201 13.9196 14.2211 14.2676 13.4413C14.6182 12.6662 15.4133 12.2071 17.0035 11.289L24.1252 7.17734C25.7131 6.26055 26.5082 5.80149 27.3562 5.88771C28.2041 5.97392 28.8907 6.5828 30.264 7.80055L33.3552 10.5428C33.4092 10.5951 33.4686 10.6414 33.5325 10.6811C33.6202 10.7239 33.7129 10.7333 33.8108 10.7093C33.8631 10.6943 33.9111 10.6666 34.0116 10.6086C35.812 9.5691 36.7099 9.05069 37.5793 8.88385C38.3652 8.73121 39.1755 8.7594 39.9489 8.9663C40.7223 9.17319 41.4385 9.55336 42.0432 10.078C42.7104 10.6585 43.2288 11.5564 44.2683 13.3568L48.4288 20.5631C50.9167 24.8722 52.1593 27.0244 51.5934 29.1363C51.0275 31.2482 48.8753 32.4908 44.5662 34.9787L26.2879 45.5316C21.9788 48.0195 19.8265 49.2621 17.7146 48.6962C15.6027 48.1304 14.3601 45.9781 11.8723 41.669L9.23403 37.0994Z" fill="#00BDFF" fill-opacity="0.16"/>
<path d="M25.969 10.6823L19.1147 14.6396" stroke="black" stroke-opacity="0.5" stroke-linecap="round" stroke-linejoin="round"/>
<path d="M35.0735 34.3665C38.859 32.181 40.156 27.3404 37.9704 23.5548C35.7849 19.7693 30.9443 18.4723 27.1587 20.6578C23.3732 22.8434 22.0762 27.684 24.2617 31.4696C26.4473 35.2551 31.2879 36.5521 35.0735 34.3665Z" fill="black" fill-opacity="0.5"/>
<path d="M7.03117 20.0928L2.46161 22.731C1.83068 23.0953 1.61451 23.9021 1.97877 24.533C2.34304 25.1639 3.1498 25.3801 3.78073 25.0158L8.35029 22.3776C8.98122 22.0133 9.19739 21.2066 8.83313 20.5756C8.46886 19.9447 7.6621 19.7285 7.03117 20.0928Z" fill="#00BDFF" fill-opacity="0.16"/>
</svg>
