<svg width="275" height="233" viewBox="0 0 275 233" fill="none" xmlns="http://www.w3.org/2000/svg">
<path fill-rule="evenodd" clip-rule="evenodd" d="M72.3128 128.715C76.141 152.733 110.616 167.916 128.99 153.707C132.087 151.322 132.29 151.222 134.516 151.823C147.477 155.248 165.994 146.385 172.773 133.496C174.009 131.188 174.213 131.087 177.816 130.598C210.37 126.258 211.853 86.7479 179.967 74.2754C170.465 70.5753 167.195 79.3927 177.705 84.1868C202.879 95.6242 203.662 118.176 178.998 121.076L177.266 121.269L177.199 115.706C177.024 101.275 163.45 91.2152 155.17 99.4637C145.498 109.077 151.699 126.438 166.06 129.709C168.552 130.268 168.552 130.268 165.215 133.522C158.048 140.667 136.198 147.114 138.591 141.393C146.894 121.53 128.227 100.108 116.97 116.582C111.697 124.313 113.743 135.641 122.014 144.292C125.424 147.867 125.212 148.133 118.586 149.469C100.515 153.122 77.9048 137.954 76.3848 121.146C75.743 113.739 71.0333 120.782 72.3128 128.715ZM120.727 121.22C124.631 115.791 136.652 127.813 135.027 135.498C133.827 141.221 132.954 141.455 127.984 137.255C121.804 132.006 118.385 124.467 120.727 121.22ZM156.859 107.141C160.214 103.502 169.011 109.481 170.986 116.731C172.168 121.136 171.959 121.347 168.114 119.953C160.56 117.116 154.208 109.932 156.859 107.141Z" fill="#00BDFF"/>
</svg>
