<svg width="306" height="249" viewBox="0 0 306 249" fill="none" xmlns="http://www.w3.org/2000/svg">
<path d="M0.111009 5.42942C-0.0603401 5.20545 -0.0305303 4.88884 0.181679 4.71391C0.26716 4.64346 2.314 2.97321 5.7197 1.63103C7.71951 0.8429 9.77418 0.333996 11.8268 0.118342C14.397 -0.15161 16.9697 0.0401097 19.4735 0.688234C24.051 1.87328 28.443 4.58878 32.5274 8.75947C37.3892 13.7239 41.8772 20.8237 45.8671 29.8619C56.3523 53.6134 72.802 70.3516 90.9984 75.7847C101.299 78.8601 111.519 78.1557 120.372 73.8589C120.224 72.0853 120.185 70.4172 120.256 68.863C120.405 65.5942 121.035 62.8535 122.127 60.7172C123.078 58.8572 124.38 57.489 125.892 56.7605C127.154 56.1526 128.543 56.0113 129.804 56.3625C131.048 56.7088 132.094 57.5044 132.75 58.6023C133.708 60.2056 133.744 62.2525 132.85 64.3661C131.808 66.8323 129.608 69.2572 126.312 71.5735C124.747 72.6733 123.126 73.6474 121.454 74.4954C122.135 81.5401 124.527 90.1577 128.596 100.209C131.517 107.42 133.644 113.997 134.919 119.756C135.501 122.384 135.909 124.853 136.14 127.148C137.966 126.542 139.733 126.129 141.413 125.915C143.629 125.634 145.768 125.691 147.77 126.084C151.465 126.809 154.774 128.643 157.886 131.692C163.585 137.275 167.658 146.099 171.596 154.633C174.197 160.269 176.887 166.098 179.954 170.705C183.386 175.861 186.822 178.865 190.768 180.156C195.76 181.79 201.534 180.578 208.421 176.45C210.188 175.39 211.841 174.318 213.372 173.242C213.237 171.996 213.151 170.79 213.114 169.627C213.007 166.259 213.311 163.243 214.019 160.661C215.215 156.301 217.587 153.23 220.526 152.235C221.763 151.816 222.995 151.81 224.089 152.216C225.206 152.631 226.076 153.433 226.604 154.536C227.145 155.665 227.287 157.065 227.015 158.582C226.716 160.25 225.935 162.039 224.695 163.901C223.315 165.972 221.379 168.105 218.942 170.238C217.603 171.411 216.109 172.586 214.47 173.757C214.778 176.339 215.293 179.09 216.015 181.979C218.325 191.225 222.085 198.637 226.625 204.571C242.662 225.533 268.446 228.117 274.645 228.433C274.925 228.448 275.164 228.256 275.213 227.978L275.827 224.454C275.904 224.015 276.161 223.631 276.534 223.401C276.907 223.17 277.368 223.109 277.798 223.234L277.835 223.245C278.517 223.443 278.999 224.054 279.033 224.764L279.153 227.195C279.165 227.439 279.329 227.653 279.561 227.729L286.781 230.074C286.943 230.127 287.111 230.107 287.252 230.017C287.393 229.927 287.482 229.785 287.502 229.616L288.868 218.122C288.921 217.676 289.159 217.277 289.521 217.026C289.884 216.775 290.342 216.691 290.78 216.797L291.858 217.057C292.517 217.217 293.022 217.777 293.115 218.453L295.061 232.633C295.089 232.836 295.222 233.013 295.409 233.095C296.469 233.563 299.294 234.818 302.614 236.346C303.738 236.864 304.647 237.487 305.242 238.149C305.881 238.86 306.128 239.593 305.937 240.215C305.756 240.802 304.903 242.069 300.892 241.147C296.77 240.2 294.525 239.701 293.553 239.488C293.392 239.452 293.225 239.489 293.097 239.588L281.346 248.643C280.67 249.163 279.673 249.027 279.121 248.34L278.422 247.468C277.951 246.882 277.928 246.065 278.365 245.482L284.973 236.653C285.073 236.52 285.107 236.347 285.067 236.18C285.026 236.014 284.916 235.873 284.764 235.793L278.208 232.376C278.001 232.267 277.755 232.294 277.583 232.443L275.025 234.661C274.683 234.957 274.226 235.087 273.771 235.018C273.317 234.948 272.907 234.686 272.647 234.298C272.271 233.738 272.271 233.002 272.647 232.466L274.747 229.473C274.707 229.474 274.666 229.474 274.625 229.472C271.188 229.296 258.99 228.23 246.32 221.856C239.098 218.224 232.906 213.461 227.916 207.7C221.827 200.669 217.486 192.09 215.016 182.203C214.336 179.483 213.834 176.883 213.514 174.429C212.096 175.408 210.578 176.382 208.968 177.348C201.817 181.635 195.769 182.877 190.478 181.144C188.258 180.417 186.212 179.19 184.223 177.392C182.465 175.803 180.79 173.799 179.103 171.265C175.99 166.588 173.282 160.721 170.664 155.047C166.767 146.602 162.737 137.87 157.18 132.426C151.329 126.695 144.637 125.338 136.237 128.219C136.375 129.983 136.405 131.637 136.324 133.171C136.148 136.508 135.457 139.268 134.269 141.372C133.233 143.21 131.813 144.521 130.165 145.165C128.596 145.777 126.882 145.764 125.339 145.129C123.839 144.511 122.638 143.336 122.044 141.906C121.169 139.801 121.619 137.383 123.312 135.1C125.324 132.385 128.938 129.967 134.054 127.913C134.421 127.766 134.786 127.626 135.149 127.493C134.467 120.241 131.954 111.219 127.644 100.575C124.873 93.7314 122.849 87.4451 121.628 81.8911C121.091 79.4486 120.707 77.138 120.478 74.974C111.484 79.2254 101.147 79.8897 90.735 76.7809C86.4114 75.4901 82.1225 73.5567 77.9875 71.0346C73.7247 68.4346 69.6065 65.1963 65.7472 61.4096C62.9692 58.6837 60.3328 55.6899 57.8484 52.4425C52.9331 46.0181 48.6081 38.5965 44.9277 30.2595C37.6829 13.8485 29.0475 4.23909 19.261 1.69852C13.8712 0.299336 9.16077 1.4091 6.15836 2.58645C2.88548 3.86982 0.86851 5.51125 0.848557 5.52768C0.631485 5.706 0.306349 5.66873 0.122369 5.44416C0.118583 5.43911 0.114764 5.43433 0.111009 5.42942ZM135.238 128.578C134.981 128.675 134.722 128.776 134.462 128.88C129.587 130.837 126.02 133.209 124.145 135.739C122.674 137.723 122.265 139.779 122.992 141.53C124.039 144.048 127.078 145.243 129.767 144.193C131.201 143.633 132.447 142.473 133.37 140.837C134.48 138.869 135.128 136.26 135.295 133.083C135.369 131.673 135.35 130.17 135.238 128.578ZM131.616 58.7402C130.444 57.2077 128.308 56.7628 126.36 57.7012C123.396 59.1291 121.547 63.2268 121.286 68.9437C121.222 70.3346 121.247 71.8082 121.358 73.3622C122.851 72.5835 124.301 71.7009 125.705 70.7145C132.512 65.9308 133.282 61.4776 131.872 59.1178C131.793 58.9854 131.708 58.8596 131.616 58.7402ZM225.286 154.321C224.327 153.068 222.646 152.624 220.882 153.221C218.259 154.11 216.12 156.933 215.013 160.967C214.135 164.169 213.914 168.088 214.34 172.549C218.607 169.437 221.838 166.298 223.834 163.302C225.993 160.062 226.665 157.023 225.679 154.963C225.567 154.73 225.435 154.516 225.286 154.321ZM285.77 235.34C285.91 235.523 286.012 235.734 286.067 235.963C286.181 236.433 286.085 236.919 285.802 237.296L279.194 246.125C279.04 246.332 279.048 246.621 279.215 246.83L279.914 247.702C280.11 247.945 280.464 247.994 280.704 247.809L292.455 238.754C292.817 238.475 293.286 238.372 293.742 238.472C294.715 238.685 296.964 239.185 301.09 240.133C303.683 240.729 304.82 240.307 304.952 239.878C305.096 239.409 304.324 238.263 302.211 237.289C298.898 235.764 296.079 234.512 295.021 234.045C294.494 233.812 294.119 233.314 294.04 232.743L292.094 218.563C292.061 218.323 291.882 218.124 291.648 218.068L290.57 217.807C290.412 217.769 290.254 217.798 290.123 217.888C289.993 217.979 289.91 218.117 289.891 218.277L288.525 229.771C288.47 230.24 288.213 230.652 287.821 230.901C287.429 231.15 286.945 231.209 286.493 231.062L279.274 228.717C278.619 228.504 278.157 227.9 278.123 227.213L278.004 224.782C277.992 224.53 277.821 224.313 277.579 224.243L277.542 224.232C277.387 224.187 277.228 224.208 277.093 224.291C276.959 224.374 276.87 224.507 276.842 224.665L276.228 228.189C276.162 228.569 275.97 228.89 275.699 229.117C275.9 229.294 275.943 229.595 275.79 229.812L273.495 233.084C273.361 233.274 273.361 233.535 273.495 233.734C273.589 233.874 273.73 233.965 273.894 233.99C274.058 234.015 274.216 233.97 274.339 233.863L276.897 231.645C277.382 231.225 278.074 231.15 278.658 231.455L285.214 234.873C285.433 234.987 285.622 235.148 285.77 235.34Z" fill="#00BDFF"/>
</svg>
