<svg width="33" height="33" viewBox="0 0 33 33" fill="none" xmlns="http://www.w3.org/2000/svg">
<path d="M11.4959 1.08516C8.19864 2.229 5.35513 4.40003 3.38299 7.27937C1.41084 10.1587 0.414018 13.5946 0.538931 17.0823C0.663843 20.5701 1.90391 23.9259 4.07698 26.6567C6.25005 29.3876 9.24159 31.3497 12.6122 32.2547C15.3448 32.9598 18.2078 32.9908 20.955 32.3449C23.4437 31.7859 25.7446 30.5902 27.6323 28.8748C29.5971 27.0349 31.0232 24.6943 31.7573 22.1046C32.5553 19.2885 32.6973 16.3269 32.1724 13.4473H16.8274V19.8127H25.7142C25.5366 20.8279 25.156 21.7969 24.5952 22.6616C24.0344 23.5263 23.3048 24.269 22.4503 24.8452C21.3651 25.563 20.1418 26.046 18.859 26.2631C17.5723 26.5024 16.2526 26.5024 14.966 26.2631C13.662 25.9935 12.4284 25.4553 11.3437 24.6827C9.60131 23.4493 8.29299 21.6971 7.60546 19.676C6.90631 17.6171 6.90631 15.385 7.60546 13.3261C8.09486 11.8829 8.90389 10.5689 9.97218 9.48212C11.1947 8.21561 12.7425 7.3103 14.4456 6.86552C16.1488 6.42074 17.9416 6.45367 19.6273 6.96071C20.9441 7.36494 22.1483 8.07121 23.1438 9.02321C24.1459 8.02634 25.1462 7.02688 26.1448 6.02485C26.6604 5.48602 27.2224 4.97298 27.7303 4.42126C26.2107 3.0071 24.4269 1.9067 22.4812 1.18313C18.9381 -0.103377 15.0613 -0.137951 11.4959 1.08516Z" fill="white"/>
<path d="M11.4958 1.08544C15.061 -0.138506 18.9378 -0.104842 22.4812 1.18083C24.4272 1.90932 26.2102 3.01501 27.7277 4.43443C27.2121 4.98614 26.6681 5.50177 26.1422 6.03802C25.1419 7.03661 24.1424 8.03177 23.1438 9.02349C22.1483 8.07148 20.9441 7.36522 19.6273 6.96099C17.9421 6.45217 16.1494 6.41733 14.4458 6.86029C12.7422 7.30325 11.1935 8.2069 9.96959 9.47208C8.90131 10.5589 8.09227 11.8729 7.60288 13.3161L2.25842 9.17817C4.17141 5.38462 7.48364 2.48285 11.4958 1.08544Z" fill="#E33629"/>
<path d="M0.840463 13.2774C1.12772 11.8538 1.60463 10.4751 2.25843 9.17822L7.60288 13.3264C6.90373 15.3853 6.90373 17.6174 7.60288 19.6763C5.82226 21.0513 4.04078 22.4332 2.25843 23.822C0.62171 20.564 0.122539 16.852 0.840463 13.2774Z" fill="#F8BD00"/>
<path d="M16.8274 13.4448H32.1724C32.6973 16.3244 32.5553 19.286 31.7573 22.1022C31.0232 24.6918 29.5971 27.0324 27.6323 28.8723C25.9076 27.5265 24.1751 26.1911 22.4503 24.8453C23.3054 24.2685 24.0353 23.525 24.5961 22.6594C25.1569 21.7937 25.5372 20.8238 25.7142 19.8076H16.8274C16.8248 17.6884 16.8274 15.5666 16.8274 13.4448Z" fill="#587DBD"/>
<path d="M2.25586 23.8219C4.0382 22.4469 5.81969 21.065 7.60031 19.6763C8.28921 21.698 9.5994 23.4504 11.3438 24.683C12.4317 25.452 13.668 25.9858 14.9738 26.2505C16.2604 26.4897 17.5801 26.4897 18.8667 26.2505C20.1496 26.0333 21.3729 25.5503 22.458 24.8325C24.1828 26.1783 25.9153 27.5138 27.6401 28.8596C25.7526 30.5759 23.4517 31.7725 20.9627 32.3323C18.2155 32.9781 15.3525 32.9472 12.6199 32.2421C10.4587 31.665 8.43994 30.6477 6.69023 29.254C4.83827 27.7837 3.32567 25.9307 2.25586 23.8219Z" fill="#319F43"/>
</svg>
