<svg width="14" height="14" viewBox="0 0 14 14" fill="none" xmlns="http://www.w3.org/2000/svg">
<path d="M9.75 0C10.7446 0 11.6984 0.395088 12.4017 1.09835C13.1049 1.80161 13.5 2.75544 13.5 3.75V9.75C13.5 10.7446 13.1049 11.6984 12.4017 12.4017C11.6984 13.1049 10.7446 13.5 9.75 13.5H3.75C2.75544 13.5 1.80161 13.1049 1.09835 12.4017C0.395088 11.6984 0 10.7446 0 9.75V3.75C0 2.75544 0.395088 1.80161 1.09835 1.09835C1.80161 0.395088 2.75544 0 3.75 0H9.75ZM6.75 3.75C5.95435 3.75 5.19129 4.06607 4.62868 4.62868C4.06607 5.19129 3.75 5.95435 3.75 6.75C3.75 7.54565 4.06607 8.30871 4.62868 8.87132C5.19129 9.43393 5.95435 9.75 6.75 9.75C7.54565 9.75 8.30871 9.43393 8.87132 8.87132C9.43393 8.30871 9.75 7.54565 9.75 6.75C9.75 5.95435 9.43393 5.19129 8.87132 4.62868C8.30871 4.06607 7.54565 3.75 6.75 3.75ZM6.75 5.25C7.14782 5.25 7.52936 5.40804 7.81066 5.68934C8.09196 5.97064 8.25 6.35218 8.25 6.75C8.25 7.14782 8.09196 7.52936 7.81066 7.81066C7.52936 8.09196 7.14782 8.25 6.75 8.25C6.35218 8.25 5.97064 8.09196 5.68934 7.81066C5.40804 7.52936 5.25 7.14782 5.25 6.75C5.25 6.35218 5.40804 5.97064 5.68934 5.68934C5.97064 5.40804 6.35218 5.25 6.75 5.25ZM10.125 2.625C9.92609 2.625 9.73532 2.70402 9.59467 2.84467C9.45402 2.98532 9.375 3.17609 9.375 3.375C9.375 3.57391 9.45402 3.76468 9.59467 3.90533C9.73532 4.04598 9.92609 4.125 10.125 4.125C10.3239 4.125 10.5147 4.04598 10.6553 3.90533C10.796 3.76468 10.875 3.57391 10.875 3.375C10.875 3.17609 10.796 2.98532 10.6553 2.84467C10.5147 2.70402 10.3239 2.625 10.125 2.625Z" fill="white"/>
</svg>
