<svg width="14" height="14" viewBox="0 0 14 14" fill="none" xmlns="http://www.w3.org/2000/svg">
<path d="M12 0C12.3978 0 12.7794 0.158035 13.0607 0.43934C13.342 0.720644 13.5 1.10218 13.5 1.5V12C13.5 12.3978 13.342 12.7794 13.0607 13.0607C12.7794 13.342 12.3978 13.5 12 13.5H1.5C1.10218 13.5 0.720644 13.342 0.43934 13.0607C0.158035 12.7794 0 12.3978 0 12V1.5C0 1.10218 0.158035 0.720644 0.43934 0.43934C0.720644 0.158035 1.10218 0 1.5 0H12ZM11.625 11.625V7.65C11.625 7.00155 11.3674 6.37965 10.9089 5.92112C10.4503 5.4626 9.82845 5.205 9.18 5.205C8.5425 5.205 7.8 5.595 7.44 6.18V5.3475H5.3475V11.625H7.44V7.9275C7.44 7.35 7.905 6.8775 8.4825 6.8775C8.76098 6.8775 9.02805 6.98812 9.22496 7.18504C9.42188 7.38195 9.5325 7.64902 9.5325 7.9275V11.625H11.625ZM2.91 4.17C3.24417 4.17 3.56466 4.03725 3.80095 3.80095C4.03725 3.56466 4.17 3.24417 4.17 2.91C4.17 2.2125 3.6075 1.6425 2.91 1.6425C2.57384 1.6425 2.25144 1.77604 2.01374 2.01374C1.77604 2.25144 1.6425 2.57384 1.6425 2.91C1.6425 3.6075 2.2125 4.17 2.91 4.17ZM3.9525 11.625V5.3475H1.875V11.625H3.9525Z" fill="white"/>
</svg>
