<svg width="60" height="44" viewBox="0 0 60 44" fill="none" xmlns="http://www.w3.org/2000/svg">
<path d="M9.98749 10.9768L19.5708 13.7435L30.1042 6.09351L14.9875 6.52684C14.8392 6.53338 14.6954 6.57941 14.5708 6.66017L9.78749 9.41017C9.6387 9.49261 9.51806 9.61779 9.44119 9.76953C9.36431 9.92127 9.33473 10.0926 9.35627 10.2613C9.37781 10.4301 9.44948 10.5884 9.56201 10.716C9.67455 10.8436 9.82276 10.9344 9.98749 10.9768Z" fill="#00BDFF" fill-opacity="0.3"/>
<path d="M57.1041 2.41008L46.6041 0.14341C45.7211 -0.0482966 44.8071 -0.0477966 43.9243 0.144877C43.0414 0.33755 42.2103 0.717887 41.4875 1.26008L9.77079 24.3101L2.15412 23.9767C1.71785 23.9619 1.28793 24.0845 0.925089 24.3272C0.562244 24.5699 0.284797 24.9204 0.131926 25.3293C-0.0209446 25.7382 -0.0415165 26.1848 0.0731155 26.606C0.187747 27.0272 0.431792 27.4017 0.770788 27.6767L8.18746 33.5601C8.30955 33.6586 8.45489 33.7241 8.60955 33.7504C8.76421 33.7766 8.92302 33.7627 9.07079 33.7101C11.1875 32.8934 19.0708 28.7101 28.3875 23.5934L30.2541 42.7767C30.27 42.9429 30.3309 43.1015 30.4303 43.2356C30.5296 43.3697 30.6637 43.4741 30.8181 43.5376C30.9725 43.601 31.1412 43.6211 31.3062 43.5957C31.4711 43.5703 31.626 43.5004 31.7541 43.3934L35.9208 39.9267C36.1489 39.7354 36.3023 39.4699 36.3541 39.1767L40.3041 17.0267C46.9708 13.3267 53.3375 9.74341 57.8208 7.21008C58.2861 6.95691 58.6623 6.56684 58.8984 6.09271C59.1346 5.61859 59.2193 5.08333 59.1411 4.55945C59.0628 4.03557 58.8255 3.5484 58.4611 3.16394C58.0968 2.77947 57.623 2.5163 57.1041 2.41008Z" fill="#00BDFF" fill-opacity="0.3"/>
</svg>
