<svg width="32" height="32" viewBox="0 0 32 32" fill="none" xmlns="http://www.w3.org/2000/svg">
<path fill-rule="evenodd" clip-rule="evenodd" d="M4.05347 3.05646C3.80311 2.96858 3.52809 2.98377 3.28892 3.09866C3.04975 3.21356 2.86601 3.41876 2.77814 3.66913C2.69026 3.91949 2.70544 4.19451 2.82034 4.43368C2.93524 4.67285 3.14044 4.85658 3.39081 4.94446L3.73881 5.06579C4.62947 5.37913 5.21481 5.58579 5.64547 5.79779C6.04947 5.99646 6.22681 6.15779 6.34414 6.32846C6.46414 6.50446 6.55747 6.74713 6.61081 7.23113C6.66414 7.73779 6.66681 8.39779 6.66681 9.38446V12.8538C6.66681 16.7765 6.75081 18.0698 7.90681 19.2885C9.06147 20.5071 10.9201 20.5071 14.6401 20.5071H21.7095C23.7908 20.5071 24.8321 20.5071 25.5668 19.9071C26.3028 19.3071 26.5135 18.2885 26.9335 16.2511L27.6001 13.0178C28.0628 10.6978 28.2935 9.53913 27.7015 8.76979C27.1095 8.00046 25.0881 8.00046 22.8415 8.00046H8.65614C8.65051 7.67181 8.63139 7.34354 8.59881 7.01646C8.52681 6.35379 8.37214 5.74979 7.99614 5.20046C7.61747 4.64579 7.11347 4.29113 6.52547 4.00179C5.97614 3.73246 5.27747 3.48713 4.45614 3.19779L4.05347 3.05646ZM20.6895 11.2765C21.0895 11.6578 21.1055 12.2898 20.7241 12.6898L16.9148 16.6898C16.8214 16.7878 16.7091 16.8659 16.5846 16.9192C16.4602 16.9725 16.3262 17 16.1908 17C16.0554 17 15.9214 16.9725 15.797 16.9192C15.6725 16.8659 15.5602 16.7878 15.4668 16.6898L13.9428 15.0898C13.8484 14.9955 13.7737 14.8833 13.7233 14.7597C13.673 14.6361 13.6478 14.5037 13.6494 14.3702C13.651 14.2368 13.6792 14.105 13.7325 13.9827C13.7858 13.8603 13.8631 13.7499 13.9598 13.6579C14.0564 13.5658 14.1705 13.4941 14.2953 13.4468C14.4201 13.3996 14.5531 13.3778 14.6865 13.3828C14.8199 13.3877 14.9509 13.4194 15.0719 13.4757C15.1928 13.5321 15.3013 13.6122 15.3908 13.7111L16.1908 14.5511L19.2761 11.3111C19.459 11.1192 19.7106 11.0077 19.9756 11.0012C20.2407 10.9947 20.4974 11.0937 20.6895 11.2765Z" fill="#1445B1"/>
<path d="M10 24C10.5304 24 11.0391 24.2107 11.4142 24.5858C11.7893 24.9609 12 25.4696 12 26C12 26.5304 11.7893 27.0391 11.4142 27.4142C11.0391 27.7893 10.5304 28 10 28C9.46957 28 8.96086 27.7893 8.58579 27.4142C8.21071 27.0391 8 26.5304 8 26C8 25.4696 8.21071 24.9609 8.58579 24.5858C8.96086 24.2107 9.46957 24 10 24ZM22 24C22.5304 24 23.0391 24.2107 23.4142 24.5858C23.7893 24.9609 24 25.4696 24 26C24 26.5304 23.7893 27.0391 23.4142 27.4142C23.0391 27.7893 22.5304 28 22 28C21.4696 28 20.9609 27.7893 20.5858 27.4142C20.2107 27.0391 20 26.5304 20 26C20 25.4696 20.2107 24.9609 20.5858 24.5858C20.9609 24.2107 21.4696 24 22 24Z" fill="#1445B1"/>
</svg>
